<?xml version="1.0" encoding="utf-8"?>
<!-- Generator: Adobe Illustrator 19.0.0, SVG Export Plug-In . SVG Version: 6.00 Build 0)  -->
<svg version="1.1" id="Layer_1" xmlns="http://www.w3.org/2000/svg" xmlns:xlink="http://www.w3.org/1999/xlink" x="0px" y="0px"
	 viewBox="0 0 841.9 595.3" style="enable-background:new 0 0 841.9 595.3;" xml:space="preserve">
<style type="text/css">
	.st0{fill:url(#SVGID_1_);}
	.st1{fill:url(#SVGID_2_);}
	.st2{fill:url(#SVGID_3_);}
	.st3{fill:url(#SVGID_4_);}
	.st4{fill:url(#SVGID_5_);}
	.st5{fill:url(#SVGID_6_);}
	.st6{fill:url(#SVGID_7_);}
	.st7{fill:url(#SVGID_8_);}
	.st8{fill:url(#SVGID_9_);}
	.st9{fill:#6E6E6E;}
	.st10{fill:#FFFFFF;}
</style>
<g>
	<g>
		<g>
			<g>
				
					<radialGradient id="SVGID_1_" cx="424.2359" cy="25.737" r="167.9274" gradientTransform="matrix(0.9805 -0.1964 0.1964 0.9805 -37.594 90.4219)" gradientUnits="userSpaceOnUse">
					<stop  offset="0" style="stop-color:#9C9E9F"/>
					<stop  offset="0.1269" style="stop-color:#969899"/>
					<stop  offset="0.2942" style="stop-color:#868889"/>
					<stop  offset="0.484" style="stop-color:#6B6D6D"/>
					<stop  offset="0.6905" style="stop-color:#464747"/>
					<stop  offset="0.9081" style="stop-color:#161717"/>
					<stop  offset="1" style="stop-color:#000000"/>
				</radialGradient>
				<path class="st0" d="M229.7,182.5c-0.3,2.6-0.5,5.4-0.6,8.1l-0.2,2.8c-0.5,13,0.5,26.3,3.2,39.6c0.3,1.6,0.7,3.2,1.1,4.8
					c29.8-3.2,64.9-8.7,102.9-16.4c20.9-4.2,42.4-9,64-14.2c60.2-14.5,117-31.7,160.9-48.4C539.3,72,453,16.7,364.3,34.5
					c-73,14.6-125.5,74.4-134.3,144.5L229.7,182.5z"/>
				
					<radialGradient id="SVGID_2_" cx="396.3655" cy="485.2522" r="447.4775" gradientTransform="matrix(0.9805 -0.1964 0.1964 0.9805 -37.594 90.4219)" gradientUnits="userSpaceOnUse">
					<stop  offset="0.8541" style="stop-color:#FFFFFF;stop-opacity:0"/>
					<stop  offset="0.9787" style="stop-color:#FFFFFF;stop-opacity:0.8539"/>
					<stop  offset="1" style="stop-color:#FFFFFF"/>
				</radialGradient>
				<path class="st1" d="M335.5,218.6c-37,7.4-70.6,12.8-100,16c-0.2-0.8-0.3-1.5-0.5-2.2c-2.6-12.8-3.6-25.9-3.1-38.9l0.2-2.7
					c0.1-2.7,0.4-5.4,0.6-8l0.4-3.6c8.8-70.8,61.8-127.8,131.9-141.9C406.9,29,450,37,486.2,60c35.3,22.4,60.6,56.8,71.3,97.1
					c-43.4,16.4-99.4,33.2-158.1,47.4C377.9,209.6,356.4,214.4,335.5,218.6L335.5,218.6z"/>
				
					<radialGradient id="SVGID_3_" cx="464.9983" cy="345.546" r="125.0323" gradientTransform="matrix(0.9805 -0.1964 0.1964 0.9805 -37.594 90.4219)" gradientUnits="userSpaceOnUse">
					<stop  offset="0" style="stop-color:#9C9E9F"/>
					<stop  offset="0.1427" style="stop-color:#97989A"/>
					<stop  offset="0.3256" style="stop-color:#87888A"/>
					<stop  offset="0.5305" style="stop-color:#6E6E70"/>
					<stop  offset="0.7514" style="stop-color:#4B494C"/>
					<stop  offset="0.9829" style="stop-color:#1E1B1F"/>
					<stop  offset="1" style="stop-color:#1A171B"/>
				</radialGradient>
				<path class="st2" d="M408.5,270c-53.5,10.7-105.5,18.4-152,22.5c36.6,55.8,104.7,86.7,174.1,72.8c69.7-14,120.7-69.1,132.8-135
					C517.4,245.1,464.4,258.8,408.5,270z"/>
				
					<radialGradient id="SVGID_4_" cx="423.1927" cy="-54.759" r="404.9697" gradientTransform="matrix(0.9805 -0.1964 0.1964 0.9805 -37.594 90.4219)" gradientUnits="userSpaceOnUse">
					<stop  offset="0.8485" style="stop-color:#FFFFFF;stop-opacity:0"/>
					<stop  offset="0.9786" style="stop-color:#FFFFFF;stop-opacity:0.8587"/>
					<stop  offset="1" style="stop-color:#FFFFFF"/>
				</radialGradient>
				<path class="st3" d="M430,362.3c-33,6.6-66.8,3.1-97.6-10.1c-28.6-12.2-52.9-32-70.7-57.3c45.5-4.2,96.3-11.8,147.3-22.1
					c53.4-10.7,105.3-23.9,150.4-38.3c-6.5,30.3-21.3,58.1-43,80.6C493,339.4,463.1,355.7,430,362.3z"/>
			</g>
			
				<radialGradient id="SVGID_5_" cx="467.6048" cy="53.4306" r="76.5882" gradientTransform="matrix(0.9805 -0.1964 0.1964 0.9805 -37.594 90.4219)" gradientUnits="userSpaceOnUse">
				<stop  offset="0" style="stop-color:#FFFFFF"/>
				<stop  offset="1" style="stop-color:#FFFFFF;stop-opacity:0"/>
			</radialGradient>
			<path class="st4" d="M466.4,67.6c31.4,13.1,51.2,37.6,44.1,54.6c-7.1,17-38.4,20.2-69.8,7.1c-31.5-13.1-51.2-37.6-44.1-54.6
				C403.7,57.7,435,54.5,466.4,67.6z"/>
			<linearGradient id="SVGID_6_" gradientUnits="userSpaceOnUse" x1="86.3567" y1="174.4295" x2="759.5332" y2="174.4295">
				<stop  offset="0" style="stop-color:#009FD7"/>
				<stop  offset="0.2" style="stop-color:#222B83"/>
				<stop  offset="0.4" style="stop-color:#E10079"/>
				<stop  offset="0.6" style="stop-color:#E21B25"/>
				<stop  offset="0.8" style="stop-color:#FFE800"/>
				<stop  offset="1" style="stop-color:#009040"/>
			</linearGradient>
			<path class="st5" d="M596.1,127.2c0,0,20.3,5.3,33.3,9.2c-34.4,22.8-122,54.2-227.1,79.5c-139,33.6-255.7,43.9-260.7,23.1
				c-2.7-11.3,27.9-29.4,78.7-48.9c0.2-2.9,0.4-5.7,0.7-8.5c-84.7,28.1-138.6,58.8-134.3,80.5c6.7,33.6,150,33.2,320.1-0.9
				c102.5-20.5,191.4-48.6,244.3-75.1l-9.5,30.2c60.2-46.2,97.7-101.1,118.1-154.6C738.6,78.1,663.1,117.7,596.1,127.2z"/>
			<g>
				
					<radialGradient id="SVGID_7_" cx="762.3334" cy="133.8934" r="96.2122" gradientTransform="matrix(0.9805 -0.1964 0.1964 0.9805 -37.594 90.4219)" gradientUnits="userSpaceOnUse">
					<stop  offset="0" style="stop-color:#FFFFFF"/>
					<stop  offset="1" style="stop-color:#FFFFFF;stop-opacity:0"/>
				</radialGradient>
				<path class="st6" d="M748.2,81.1c1.7-3.7,3.4-7.4,4.9-11.2c-26.1,17-84.6,46.2-141.7,57.7c-0.4,0.1-0.9,0.2-1.3,0.3
					c4.7,1.3,10.1,2.8,15,4.2C673.8,120.3,721.9,97.1,748.2,81.1z"/>
				
					<radialGradient id="SVGID_8_" cx="548.0825" cy="190.8602" r="187.389" gradientTransform="matrix(0.9805 -0.1964 0.1964 0.9805 -37.594 90.4219)" gradientUnits="userSpaceOnUse">
					<stop  offset="0" style="stop-color:#FFFFFF"/>
					<stop  offset="1" style="stop-color:#FFFFFF;stop-opacity:0"/>
				</radialGradient>
				<path class="st7" d="M140,243.1c-0.3,1.3-0.2,2.6,0.1,3.9c0.9,3.8,3.7,15.4,61.9,12.6c35.5-1.7,84.5-8.5,137.9-19.2
					c21-4.2,42.7-9,64.5-14.3c102.7-24.8,192.2-56.2,228-79.9l5.3-3.5l-6-1.8c-0.8-0.2-1.6-0.5-2.4-0.7
					c-36.9,23.6-125.2,54.4-226.3,78.8c-21.8,5.3-43.5,10.1-64.5,14.3C285,243.8,236,250.6,200.5,252.3
					C154.8,254.5,143.3,247.9,140,243.1z"/>
			</g>
		</g>
		
			<radialGradient id="SVGID_9_" cx="396.843" cy="427.5572" r="191.2656" gradientTransform="matrix(-1.2177 1.145387e-002 -1.338520e-003 -0.1874 878.9459 496.0867)" gradientUnits="userSpaceOnUse">
			<stop  offset="0" style="stop-color:#B1B3B4"/>
			<stop  offset="0.3696" style="stop-color:#D3D4D5;stop-opacity:0.6304"/>
			<stop  offset="0.7749" style="stop-color:#F3F3F3;stop-opacity:0.2251"/>
			<stop  offset="1" style="stop-color:#FFFFFF;stop-opacity:0"/>
		</radialGradient>
		<ellipse class="st8" cx="395.2" cy="422" rx="231.6" ry="38"/>
	</g>
	<g>
		<g>
			<path class="st9" d="M298.4,567.2c0.3,0.5,0.7,0.7,1.3,0.7c0.6,0,1.8-0.4,3.6-1.3c0-0.4,0-1.5,0.1-3.4c-1.6-0.1-3,0.1-4,0.6"/>
			<path class="st9" d="M336.2,568.5l0-0.5c0.7-0.1,1.2-0.2,1.5-0.4c0.3-0.1,0.5-0.3,0.6-0.5c0.1-0.2,0.2-0.4,0.2-0.7
				c0.1-0.7,0.2-1.5,0.2-2.4c0-1,0.1-2,0.1-2.9c0-1.4,0-2.3-0.1-2.8c-0.1-0.5-0.3-0.8-0.6-1c-0.3-0.1-0.9-0.2-1.7-0.3
				c0-0.2,0-0.3,0-0.4c0.5-0.1,1.3-0.4,2.2-0.8c0.9-0.4,1.4-0.6,1.4-0.7c0.5-0.2,0.8-0.4,0.8-0.4c0.2,0,0.3,0.2,0.4,0.5
				c0.1,0.3,0.1,0.9,0.1,1.7c1.4-0.8,2.5-1.3,3.4-1.6c0.9-0.3,1.7-0.5,2.5-0.5c1.2,0,2.1,0.3,2.7,0.8c0.6,0.5,0.9,1.1,1,1.9
				c0.1,0.7,0.2,1.7,0.2,2.9v4.3c0,1.7,0.1,2.6,0.2,2.8c0.1,0.1,0.4,0.2,1,0.3c0.6,0.1,0.9,0.2,1,0.2l0,0.6c-0.9-0.1-2-0.2-3.3-0.2
				c-1,0-2.3,0.1-3.8,0.2v-0.5c1.1-0.2,1.8-0.6,2.1-1c0.2-0.4,0.3-1.2,0.4-2.5c0.1-1.3,0.1-2.3,0.1-3c0-1.1,0-1.9-0.1-2.6
				c-0.1-0.7-0.4-1.3-0.8-1.8c-0.4-0.5-1.1-0.7-2-0.7c-0.4,0-1,0.1-1.8,0.2c-0.8,0.2-1.8,0.5-2.9,1.1l-0.1,4.8c0,2.1,0,3.4,0.1,4.1
				c0,0.3,0.1,0.5,0.2,0.7c0.1,0.1,0.3,0.3,0.6,0.4c0.3,0.1,0.9,0.2,1.6,0.3l0,0.6c-0.3,0-0.7-0.1-1.2-0.1c-0.5,0-1.2-0.1-2-0.1
				H336.2z"/>
			<path class="st9" d="M379.7,556.1v-0.6c0.6,0.1,1.5,0.1,2.6,0.1c1.3,0,2.6-0.1,3.8-0.2l-0.1,0.7c-0.5,0.1-0.9,0.2-1.1,0.3
				c-0.2,0.1-0.3,0.4-0.3,0.7c0,0.6,0.3,1.8,0.8,3.8c0.5,1.9,1.2,3.9,1.9,5.8l1.2-2.1c0.5-0.9,1.2-2.1,1.9-3.8
				c0.7-1.6,1.1-2.7,1.1-3.3c0-0.9-0.9-1.4-2.6-1.6l0.3-0.6c1.5,0.1,2.8,0.2,3.9,0.2c0.8,0,1.4,0,1.9-0.1l0,0.6
				c-0.3,0-0.6,0.2-0.9,0.4c-0.3,0.2-0.5,0.5-0.7,0.8c-0.2,0.4-0.5,0.8-0.8,1.4l-2,4.1c0,0.1-0.5,1-1.4,2.7c-1.3,2.5-2.3,4.6-3,6.1
				c-0.7,1.5-1.2,2.8-1.5,3.7c-0.3,1-0.7,2.3-1.1,3.9h-4v-0.6c0.8-0.2,1.5-0.5,2-0.8c0.5-0.4,0.9-0.9,1.4-1.6c0.4-0.7,0.9-1.7,1.5-3
				l1.5-3.2c-0.7-2.6-1.4-4.9-2-6.9c-0.6-2-1.2-3.6-1.7-4.8c-0.2-0.6-0.5-1.1-0.8-1.4c-0.3-0.3-0.5-0.5-0.7-0.6
				C380.5,556.3,380.2,556.2,379.7,556.1z"/>
			<path class="st9" d="M459.1,564.7l0.7,0c0,0.2,0.2,0.6,0.6,1.1c0.4,0.5,1,1,1.6,1.4c0.7,0.4,1.4,0.6,2.3,0.6
				c0.6,0,1.2-0.1,1.8-0.4c0.6-0.2,0.9-0.8,0.9-1.6c0-0.9-0.3-1.5-0.9-2.1c-0.6-0.5-1.3-1-2.1-1.3l-1.4-0.6c-0.8-0.4-1.5-0.9-2-1.3
				c-0.5-0.4-0.7-1-0.7-1.8c0-0.6,0.2-1.1,0.6-1.8c0.4-0.6,1-1.1,1.8-1.5c0.8-0.4,1.7-0.6,2.7-0.6c0.6,0,1.6,0.1,3,0.3l0.6,3.1h-0.7
				c-0.1-0.4-0.4-0.8-0.8-1.2c-0.4-0.4-0.9-0.7-1.4-1c-0.5-0.3-1-0.4-1.4-0.4c-0.7,0-1.2,0.2-1.6,0.6c-0.4,0.4-0.6,0.9-0.6,1.5
				c0,0.5,0.2,0.9,0.4,1.2c0.3,0.3,0.9,0.7,1.7,1.1l1.1,0.5c1,0.5,1.9,1,2.7,1.6c0.7,0.6,1.1,1.5,1.1,2.7c0,0.4-0.1,0.9-0.3,1.4
				c-0.2,0.5-0.5,0.8-0.8,1c-1,0.6-1.9,1.1-2.6,1.2c-0.7,0.2-1.4,0.3-2.1,0.3c-0.3,0-0.6,0-1.1-0.1c-0.5-0.1-0.8-0.1-1-0.1
				c-0.2,0-0.5-0.1-1-0.3c-0.5-0.1-0.8-0.2-0.9-0.3c0.1-0.5,0.1-0.8,0.1-1c0-0.3,0-0.7-0.2-1.2C459.3,565.3,459.2,564.9,459.1,564.7
				z"/>
			<path class="st9" d="M497.9,568.8v-0.6c0.9-0.2,1.6-0.4,2-0.8c0.4-0.4,0.6-1,0.7-1.8c0.1-0.4,0.1-1.4,0.2-2.8
				c0.1-1.5,0.1-3.2,0.2-5.1c0.1-1.9,0.1-3.6,0.1-5.2c0-3.2-0.2-5-0.5-5.5c-0.2-0.3-0.6-0.5-1.3-0.5c-0.2,0-0.3,0-0.4,0
				c-0.1,0-0.2,0-0.2,0c-0.1,0-0.2,0-0.2,0v-0.6c2.4-1,4.1-1.8,5.1-2.5h0.6c-0.4,1.4-0.6,4-0.7,7.8l-0.1,8.7c0,4.1,0.1,6.4,0.3,7
				c0.1,0.3,0.5,0.6,1.1,0.7c0.6,0.2,1.2,0.3,1.7,0.3v0.7c-2.4-0.2-4.1-0.3-5-0.3C500.2,568.7,499.1,568.7,497.9,568.8z"/>
			<path class="st9" d="M534.9,562c0-1.1,0.2-2,0.6-2.9c0.4-0.9,1-1.6,1.7-2.2c0.7-0.6,1.5-1.1,2.5-1.5c1-0.3,2-0.5,3.1-0.5
				c1,0,1.9,0.2,2.8,0.5c0.9,0.3,1.7,0.8,2.3,1.4c0.7,0.6,1.2,1.4,1.6,2.2c0.4,0.8,0.6,1.7,0.6,2.7c0,1.3-0.3,2.4-0.9,3.5
				c-0.6,1.1-1.5,2-2.6,2.7c-1.1,0.7-2.4,1-3.9,1c-1.1,0-2.3-0.2-3.4-0.7c-1.2-0.5-2.2-1.2-3-2.3C535.3,564.9,534.9,563.6,534.9,562
				z"/>
			<path class="st9" d="M584.8,566.4c-0.7-0.2-1.4-0.4-2.2-0.8c-0.7-0.3-1.4-0.9-2-1.6c-0.6-0.8-0.9-1.8-0.9-3.1
				c0-1.2,0.3-2.2,1-3.2c0.6-1,1.5-1.7,2.5-2.3c1-0.6,2.1-0.8,3.2-0.8c0.7,0,1.3,0.1,1.9,0.3c0.6,0.2,1.1,0.4,1.6,0.8
				c0.9-0.2,1.9-0.3,2.8-0.3c0.7,0,1.1,0,1.4,0.1c0,0.7-0.2,1.3-0.5,2c-0.8-0.3-1.7-0.5-2.7-0.5c0.2,0.2,0.3,0.5,0.5,0.9
				c0.2,0.4,0.3,0.8,0.4,1.2c0.1,0.4,0.2,0.8,0.2,1.2c0,1.1-0.3,2.1-0.8,2.8c-0.5,0.8-1.1,1.4-1.9,1.9c-0.8,0.5-1.7,1-2.9,1.5
				c-2.2,0.9-3.3,1.6-3.3,2.1c0,0.7,0.9,1.1,2.8,1.1c1.5,0,2.7,0,3.6,0.1c0.9,0.1,1.6,0.2,2.3,0.4c0.7,0.2,1.2,0.6,1.5,1
				c0.4,0.5,0.5,1.2,0.5,2c0,1.2-0.5,2.2-1.4,3.1c-0.9,0.9-2.1,1.6-3.6,2.1c-1.5,0.5-2.9,0.7-4.4,0.7c-1.9,0-3.2-0.4-4-1.2
				c-0.7-0.8-1.1-1.7-1.1-2.6c0-1,0.3-1.8,1-2.5c0.6-0.6,1.5-1.2,2.4-1.8c-1.3-0.7-2-1.6-1.9-2.8c0.6-0.4,1.6-0.9,2.9-1.4
				L584.8,566.4z M586,571.8c-1.1,0-1.9-0.1-2.4-0.2c-0.8,0.2-1.5,0.6-2.1,1.2c-0.6,0.5-0.9,1.1-0.9,1.8c0,0.8,0.5,1.5,1.4,2.2
				c1,0.6,2.2,1,3.7,1c0.9,0,1.8-0.1,2.8-0.4c1-0.3,1.9-0.7,2.6-1.2c0.7-0.5,1.1-1.2,1.1-2c0-0.5-0.2-1.1-0.6-1.5
				c-0.4-0.5-1-0.7-1.8-0.8"/>
			<path class="st9" d="M625.4,558l-2.3,1c-0.1-0.4-0.1-0.7-0.1-0.9c0-0.6,0.4-1.2,1.2-1.7c0.8-0.5,1.7-1,2.6-1.3
				c1-0.3,1.7-0.5,2-0.5c0.3,0,0.8,0.2,1.3,0.4c0.5,0.3,0.9,0.6,1.2,0.9c0.3,0.2,0.5,0.5,0.6,0.7c0.1,0.2,0.3,0.6,0.4,1.1
				c0.1,0.5,0.2,1.2,0.2,1.9c0,0.2,0,1-0.1,2.4l-0.1,1.4c-0.1,0.7-0.1,1.2-0.1,1.6c0,0.5,0.1,1,0.2,1.6c0.1,0.6,0.4,0.9,0.8,0.9
				c0.5,0,1.1-0.2,2-0.5v0.7l-2.8,1.1c-0.6,0.2-0.9,0.3-0.9,0.3c-0.3,0-0.6-0.2-0.9-0.5c-0.3-0.4-0.5-0.8-0.7-1.3
				c-2.3,1.2-4.1,1.9-5.3,1.9c-0.8,0-1.3-0.2-1.7-0.6c-0.4-0.4-0.6-1.1-0.6-1.9c0-0.8,0.1-1.4,0.3-1.8c0.2-0.4,0.5-0.7,1-0.9
				c0.9-0.5,1.9-0.8,3-1c1.1-0.2,2.2-0.4,3.3-0.6l0.1-2.2v-0.6c0-1-0.3-1.8-0.9-2.4c-0.6-0.6-1.3-0.9-2.1-0.9
				c-0.4,0-0.8,0.1-1.2,0.3c-0.4,0.2-0.6,0.5-0.6,0.9C625.2,557.5,625.2,557.7,625.4,558z M629.8,566.7c0-0.4,0-1.5,0.1-3.4
				c-1.6-0.1-3,0.1-4,0.6c-1,0.5-1.5,1.1-1.5,1.9c0,0.5,0.2,1.1,0.5,1.5c0.3,0.5,0.7,0.7,1.3,0.7C626.8,568,628,567.5,629.8,566.7z"
				/>
		</g>
	</g>
</g>
<rect x="163.5" y="533" class="st10" width="526.9" height="54"/>
<rect x="1482.4" y="744.4" class="st10" width="12" height="1.5"/>
</svg>
