<?xml version="1.0" encoding="utf-8"?>
<!-- Generator: Adobe Illustrator 21.0.0, SVG Export Plug-In . SVG Version: 6.00 Build 0)  -->
<svg version="1.1" id="Layer_1" xmlns="http://www.w3.org/2000/svg" xmlns:xlink="http://www.w3.org/1999/xlink" x="0px" y="0px"
	 viewBox="0 0 240.9 155.9" style="enable-background:new 0 0 240.9 155.9;" xml:space="preserve">
<style type="text/css">
	.st0{fill:url(#SVGID_1_);}
	.st1{fill:url(#SVGID_2_);}
	.st2{fill:url(#SVGID_3_);}
	.st3{fill:url(#SVGID_4_);}
</style>
<rect x="0.1" y="0.5" width="240.9" height="154.8"/>
<g>
	
		<linearGradient id="SVGID_1_" gradientUnits="userSpaceOnUse" x1="-1885.129" y1="4876.7769" x2="-1776.7289" y2="4747.5903" gradientTransform="matrix(-0.2219 -1.707668e-03 1.566411e-03 -0.2033 -310.0289 1073.6664)">
		<stop  offset="1.612900e-02" style="stop-color:#243E90"/>
		<stop  offset="0.3462" style="stop-color:#4B68B1"/>
		<stop  offset="0.9585" style="stop-color:#35C6F4"/>
	</linearGradient>
	<path class="st0" d="M67.7,84.7C67.7,84.7,67.7,84.8,67.7,84.7c0.8,1.8,1.8,4,2.7,5.7c1.2,2.1,1.3,2.3,3.5,5.3
		c1.2,1.6,1.3,1.7,3.8,4.4l1.7,1.7c9,8.2,20.4,12.8,33.7,13.9c1.8,0,4.1,0,5.9,0c3.1-0.2,3.5-0.3,7.8-1c3.6-0.8,4.2-1,8.4-2.5
		c4.1-1.7,4.8-2.1,8.7-4.3l0.3-0.2C143.8,107.8,104.8,129.5,67.7,84.7z"/>
	
		<radialGradient id="SVGID_2_" cx="-1865.6615" cy="4858.2158" r="278.077" gradientTransform="matrix(-0.2219 -1.707668e-03 1.566411e-03 -0.2033 -310.0289 1073.6664)" gradientUnits="userSpaceOnUse">
		<stop  offset="0.1145" style="stop-color:#F58465"/>
		<stop  offset="0.6097" style="stop-color:#EF3924"/>
		<stop  offset="1" style="stop-color:#BB2025"/>
	</radialGradient>
	<path class="st1" d="M146.2,79.5c-15.5,4-39.9-1.4-56.4-19.4c-2-2.1-7.2-7.9-11.2-6.1c-0.4,0.2-0.9,0.6-1.2,0.8
		c-2,2.6-4.5,8.4,2,17.2c25.8,29.1,82.8,34,86.8-0.1c0.1-4,0.1-4.8-0.4-9.1c-0.6-3.6-0.8-4.3-2.1-8.2c-1-2.7-1.2-3.2-3-6.6
		c-1.2-2.1-1.3-2.3-3.5-5.3C170.5,61.4,161.5,75.6,146.2,79.5z"/>
	
		<linearGradient id="SVGID_3_" gradientUnits="userSpaceOnUse" x1="-1973.2699" y1="5013.2017" x2="-1780.1926" y2="4783.1011" gradientTransform="matrix(-0.2219 -1.707668e-03 1.566411e-03 -0.2033 -310.0289 1073.6664)">
		<stop  offset="0.1067" style="stop-color:#98247C"/>
		<stop  offset="0.8887" style="stop-color:#D675AF"/>
	</linearGradient>
	<path class="st2" d="M72.7,87.7c18.4,20.8,57.6,31.8,78.7,14.3l0.8-0.8c3.8-4,4.5-5,7.1-8.6c2.6-4.4,3-5.4,4.6-9.5l0.8-2.6
		c-9.4,30.3-63.4,23.4-88-4.2c-4.1-4.6-7.6-8.2-9.2-6.4c-0.2,0.3-0.3,0.7-0.5,1C66.2,76.1,68.2,81.7,72.7,87.7z"/>
	
		<linearGradient id="SVGID_4_" gradientUnits="userSpaceOnUse" x1="-2040.3613" y1="5155.9736" x2="-1884.4247" y2="4970.1357" gradientTransform="matrix(-0.2219 -1.707668e-03 1.566411e-03 -0.2033 -310.0289 1073.6664)">
		<stop  offset="0.2831" style="stop-color:#F26322"/>
		<stop  offset="0.2892" style="stop-color:#F26322"/>
		<stop  offset="0.5602" style="stop-color:#EC9322"/>
		<stop  offset="1" style="stop-color:#FFCD05"/>
	</linearGradient>
	<path class="st3" d="M110.6,31.7c1.5,3.5,15.5,5.1,16.6,3c0.5-4.3,8-4.5,14.8-0.4c11.8,7.2,12.7,21.5-2.1,24.2
		c-4.7,0.9-19.3,0.4-31.1-11.7c-3.6-3.7-8.1-4.8-11-4.4c-0.5,0.1-1.2,0.3-1.7,0.5c-2.4,1.4-7.5,5.4-1.9,13.3
		c15.2,17,40.7,22.4,54.9,16.7c22.7-9.1,10.7-37.2-13.7-46.1C118.1,20.5,109.2,28.6,110.6,31.7z"/>
</g>
</svg>
